<svg width="572" height="400" viewBox="0 0 572 400" fill="none" xmlns="http://www.w3.org/2000/svg">
<path fill-rule="evenodd" clip-rule="evenodd" d="M316.501 145.092L571.124 0.426747L570.981 0.569003L399.969 168.349C399.99 176.34 400 186.716 400 200C400 310.384 310.384 400 200 400C89.6159 400 0 310.384 0 200C0 89.6159 89.4737 0 200 0L428.734 0.569003L314.509 35.8464L200 71.266C129.018 71.266 71.5505 128.734 71.5505 199.715C71.5505 270.697 142.248 328.165 200 328.165C257.752 328.165 306.543 290.185 322.76 237.838C326.6 225.889 328.592 219.346 328.592 199.715C328.592 180.085 324.324 161.593 316.501 145.092ZM397.866 170.413L398.368 169.92C398.212 171.264 398.045 171.626 397.866 170.413ZM518.319 0.428025L303.099 122.903L302.815 123.045C289.443 104.98 271.378 90.6129 250.467 81.6513L518.319 0.428025Z" fill="#07091C"/>
</svg>
