<svg width="790" height="110" viewBox="0 0 790 110" fill="none" xmlns="http://www.w3.org/2000/svg">
<path fill-rule="evenodd" clip-rule="evenodd" d="M477.069 0H510.719V19.1974H477.069V109.227H454.231V19.1974H420.47V0H454.231H477.069ZM88.2639 65.76C83.8507 80.1029 70.5008 90.4739 54.7236 90.4739C38.9464 90.4739 19.5284 74.6967 19.5284 55.2786C19.5284 35.8606 35.3056 20.0834 54.7236 20.0834L86.0573 10.3744L117.281 0.665383L54.7236 0.444727C24.4932 0.444727 0 24.938 0 55.1683C0 85.3987 24.4932 109.892 54.7236 109.892C84.954 109.892 109.447 85.3987 109.447 55.1683C109.447 51.6366 109.444 48.8563 109.438 46.6958L156.124 0.880859L86.5461 40.4663L86.5058 40.3789V40.4893L86.5461 40.4663C88.6176 44.9678 89.8157 50.0117 89.8157 55.2735C89.8157 60.5572 89.2665 62.4363 88.2778 65.7321L88.2639 65.76ZM108.91 47.2141C108.94 47.3829 108.969 47.3337 108.997 47.129L108.91 47.2141ZM198.48 0.773438L175.972 77.894L176.303 96.3191L152.472 16.8816L134.268 36.6306L159.092 110H186.674L223.083 0.773438H198.48ZM525.281 0.773438V110H548.119V0.773438H525.281ZM789.3 20.1915H722.44L739.762 27.1423V45.788H786.432V63.8821H739.762V90.4716H789.3V110H716.924V0.773438H789.3V20.1915ZM399.723 61.8962C397.296 63.8821 394.427 65.6474 391.338 66.861H391.448L414.507 110H388.58L359.342 52.8491H369.603C375.34 52.8491 379.864 51.4149 383.063 48.436C386.263 45.457 387.807 41.3748 387.807 36.079C387.807 33.5414 387.366 31.2245 386.483 29.1282C385.711 27.032 384.387 25.2667 382.843 23.8324C381.188 22.2878 379.312 21.1845 376.995 20.4122C374.678 19.6398 372.141 19.1985 369.272 19.1985H349.413V110H326.574V0.773438H372.472C378.54 0.773438 383.946 1.54576 388.69 3.20071C393.434 4.85566 397.516 7.17257 400.826 10.1515C404.247 13.2407 406.784 16.8816 408.549 21.1845C410.315 25.4873 411.197 30.4522 411.197 35.8584C411.197 39.3889 410.756 42.6988 409.873 45.8983C408.991 49.0979 407.667 52.0768 406.012 54.7247C404.247 57.483 402.15 59.7999 399.723 61.8962ZM663.532 0.773438L635.508 68.6263L639.701 93.2299L631.868 74.2531L601.637 0.773438H574.717V110H595.9V36.9617H597.114L624.917 103.711H640.142L667.945 36.9617H669.159V110H690.342V0.773438H663.532ZM309.253 20.1915H242.394L259.715 27.1423V45.788H306.385V63.8821H259.715V90.4716H309.253V110H236.877V0.773438H309.253V20.1915ZM82.7395 34.4211L141.656 0.880859L68.3966 23.0572C74.1337 25.4844 79.0986 29.4563 82.7395 34.4211Z" fill="#07091C"/>
</svg>
